HIERARCHY
ROOT Hips
{
	OFFSET 0.000000 0.000000 0.000000 
	CHANNELS 6 Xposition Yposition Zposition Zrotation Yrotation Xrotation
	JOINT LeftUpLeg
	{
		OFFSET 1.363060 -1.794630 0.839290 
		CHANNELS 3 Zrotation Yrotation Xrotation
		JOINT LeftLeg
		{
			OFFSET 2.448110 -6.726130 0.000000 
			CHANNELS 3 Zrotation Yrotation Xrotation
			JOINT LeftFoot
			{
				OFFSET 2.562200 -7.039590 0.000000 
				CHANNELS 3 Zrotation Yrotation Xrotation
				JOINT LeftToeBase
				{
					OFFSET 0.157640 -0.433110 2.322550 
					CHANNELS 3 Zrotation Yrotation Xrotation
					End Site
					{
						OFFSET 0.000000 0.000000 0.000000 
					}
				}
			}
		}
	}
	JOINT RightUpLeg
	{
		OFFSET -1.305520 -1.794630 0.839290 
		CHANNELS 3 Zrotation Yrotation Xrotation
		JOINT RightLeg
		{
			OFFSET -2.542530 -6.985550 0.000000 
			CHANNELS 3 Zrotation Yrotation Xrotation
			JOINT RightFoot
			{
				OFFSET -2.568260 -7.056230 0.000000 
				CHANNELS 3 Zrotation Yrotation Xrotation
				JOINT RightToeBase
				{
					OFFSET -0.164730 -0.452590 2.363150 
					CHANNELS 3 Zrotation Yrotation Xrotation
					End Site
					{
						OFFSET 0.000000 0.000000 0.000000 
					}
				}
			}
		}
	}
	JOINT Spine
	{
		OFFSET 0.028270 2.035590 -0.193380 
		CHANNELS 3 Zrotation Yrotation Xrotation
		JOINT Spine1
		{
			OFFSET 0.056720 2.048850 -0.042750 
			CHANNELS 3 Zrotation Yrotation Xrotation
			JOINT Neck1
			{
				OFFSET -0.054170 1.746240 0.172020 
				CHANNELS 3 Zrotation Yrotation Xrotation
				JOINT Head
				{
					OFFSET 0.104070 1.761360 -0.123970 
					CHANNELS 3 Zrotation Yrotation Xrotation
					End Site
					{
						OFFSET 0.000000 0.000000 0.000000 
					}
				}
			}
			JOINT LeftArm
			{
				OFFSET 3.362410 1.200890 -0.311210 
				CHANNELS 3 Zrotation Yrotation Xrotation
				JOINT LeftForeArm
				{
					OFFSET 4.983000 -0.000000 -0.000000 
					CHANNELS 3 Zrotation Yrotation Xrotation
					JOINT LeftHand
					{
						OFFSET 3.483560 -0.000000 -0.000000 
						CHANNELS 3 Zrotation Yrotation Xrotation
						JOINT LeftHandIndex1
						{
							OFFSET 0.715260 -0.000000 -0.000000 
							CHANNELS 3 Zrotation Yrotation Xrotation
							End Site
							{
								OFFSET 0.000000 0.000000 0.000000 
							}
						}
					}
				}
			}
			JOINT RightArm
			{
				OFFSET -3.136600 1.374050 -0.404650 
				CHANNELS 3 Zrotation Yrotation Xrotation
				JOINT RightForeArm
				{
					OFFSET -5.241900 -0.000000 -0.000000 
					CHANNELS 3 Zrotation Yrotation Xrotation
					JOINT RightHand
					{
						OFFSET -3.444170 -0.000000 -0.000000 
						CHANNELS 3 Zrotation Yrotation Xrotation
						JOINT RightHandIndex1
						{
							OFFSET -0.622530 -0.000000 -0.000000 
							CHANNELS 3 Zrotation Yrotation Xrotation
							End Site
							{
								OFFSET 0.000000 0.000000 0.000000 
							}
						}
					}
				}
			}
		}
	}
}
MOTION
Frames: 10
Frame Time: 0.041667
0.023767 18.384601 10.034504 -5.666971 40.268656 14.496738 -12.534776 -40.587053 1.486899 -2.741207 -1.393854 -2.480588 -5.512741 21.320242 6.596109 1.044500 -6.499300 -18.240300 27.973512 27.170989 11.073766 5.167937 0.978235 0.612612 4.908997 -35.503823 -49.463737 -4.505900 -12.804800 38.642000 13.865085 14.091973 -39.375779 -11.866179 3.015587 -10.311487 13.552167 9.975622 -42.318165 2.343100 2.249400 -9.997700 -90.850338 27.077027 10.271383 12.823894 -15.146282 -2.638848 0.329341 1.810145 20.473802 -7.125000 0.000000 0.000000 79.546330 -29.058368 11.913112 -17.362268 24.077912 -4.586447 0.142605 1.680865 25.136476 7.125000 0.000000 0.000000 
0.017037 18.381867 10.043232 -5.595551 40.224719 14.438128 -12.678571 -40.494205 1.655382 -2.746749 -1.412748 -2.511443 -5.497970 21.284399 6.638783 1.071200 -6.579400 -18.475100 28.024681 27.208626 11.229030 5.166903 0.968234 0.647018 4.885880 -35.469013 -49.478101 -4.531700 -12.836200 38.758300 13.915874 14.114474 -39.381941 -11.854407 3.024201 -10.190551 13.363927 10.095014 -42.278536 2.206700 2.306100 -9.971300 -90.874737 27.341646 10.096607 12.850378 -15.188096 -2.647246 0.337156 1.793937 20.342437 -7.125000 0.000000 0.000000 79.551158 -29.237925 12.180377 -17.404824 24.135046 -4.609493 0.145402 1.687281 25.268707 7.125000 0.000000 0.000000 
0.010727 18.378817 10.053748 -5.491175 40.214669 14.391907 -12.865304 -40.469418 1.852507 -2.752340 -1.431099 -2.539095 -5.487571 21.249543 6.629344 1.102200 -6.670900 -18.744100 28.065370 27.307593 11.440045 5.172124 0.970610 0.658213 4.776570 -35.399157 -49.679290 -4.567600 -12.879700 38.919700 13.924135 14.208842 -39.301703 -11.896765 3.094652 -9.946991 13.610712 9.975981 -42.311494 2.359600 2.247600 -9.959800 -90.801229 27.348669 10.076758 12.813514 -15.146021 -2.634303 0.354154 1.790849 20.584644 -7.125000 0.000000 0.000000 79.650443 -29.334261 11.971683 -17.498099 24.227207 -4.650967 0.148858 1.692714 25.523091 7.125000 0.000000 0.000000 
0.003786 18.375662 10.065527 -5.359020 40.201276 14.449871 -13.017250 -40.507681 1.961017 -2.755067 -1.432286 -2.543405 -5.489283 21.252374 6.570196 1.114200 -6.705900 -18.846900 28.034078 27.386709 11.554554 5.178142 0.972109 0.659260 4.693694 -35.360239 -49.852466 -4.589300 -12.905800 39.016900 13.815844 14.231796 -39.419648 -11.710098 3.162110 -9.716061 11.843220 10.433794 -41.998259 1.394700 2.566100 -9.704000 -90.709253 27.449327 10.140529 12.811897 -15.119227 -2.630931 0.352715 1.799493 20.767730 -7.125000 0.000000 0.000000 79.728357 -29.307346 11.823346 -17.436824 24.157444 -4.623482 0.159562 1.685347 25.817704 7.125000 0.000000 0.000000 
-0.003576 18.373454 10.076990 -5.170827 40.195684 14.548374 -13.124693 -40.290841 1.852671 -2.755093 -1.417427 -2.494849 -5.402426 20.993083 6.637110 1.118200 -6.717600 -18.881200 27.909991 27.346256 11.546938 5.180066 0.969157 0.667813 4.726336 -35.404784 -49.826305 -4.578800 -12.893100 38.969700 13.840912 14.182023 -39.374687 -11.700818 3.154583 -9.462332 13.221440 9.975047 -42.449146 2.146700 2.254100 -9.952600 -90.568329 27.575213 10.309829 12.824618 -15.153756 -2.624117 0.267256 1.760469 20.706533 -7.125000 0.000000 0.000000 79.736072 -29.155365 11.785662 -17.354766 24.026813 -4.571982 0.168367 1.670615 26.052820 7.125000 0.000000 0.000000 
-0.011463 18.371561 10.089294 -5.052142 40.249175 14.589739 -13.183314 -40.009517 1.730250 -2.754157 -1.410517 -2.463427 -5.284041 20.644244 6.776828 1.114900 -6.707900 -18.852800 27.869559 27.313697 11.585432 5.182723 0.963294 0.684152 4.725441 -35.449035 -49.874723 -4.566700 -12.878600 38.915600 14.183419 14.115908 -39.327693 -11.515631 3.072884 -9.240802 12.723479 10.118513 -42.764429 1.900700 2.335600 -10.066700 -90.672337 27.741294 10.074961 12.894281 -15.208264 -2.616722 0.146464 1.673572 20.699769 -7.125000 0.000000 0.000000 79.560904 -29.089438 12.020707 -17.312512 23.985327 -4.552887 0.175999 1.660289 26.112183 7.125000 0.000000 0.000000 
-0.018929 18.367775 10.103701 -5.041380 40.352788 14.533910 -13.199551 -39.822663 1.716669 -2.755599 -1.429830 -2.492004 -5.202390 20.395660 6.891661 1.117600 -6.715800 -18.876200 27.937995 27.330397 11.693385 5.186662 0.954668 0.713953 4.628812 -35.410790 -50.068621 -4.566900 -12.878800 38.916400 15.222802 14.026102 -39.060762 -11.238978 2.828071 -9.028439 12.590395 10.488951 -43.203477 1.798900 2.497500 -10.297100 -91.187121 27.855228 9.099384 12.987633 -15.286366 -2.646741 0.176549 1.677053 20.723593 -7.125000 0.000000 0.000000 78.970287 -29.082794 13.048681 -17.290168 24.009486 -4.555401 0.175793 1.662993 25.850249 7.125000 0.000000 0.000000 
-0.024608 18.363674 10.118319 -4.890867 40.424784 14.622544 -13.256381 -39.786008 1.731592 -2.754110 -1.430854 -2.506165 -5.167185 20.293825 6.869894 1.111600 -6.698200 -18.824300 27.972207 27.370435 11.791633 5.193260 0.952794 0.741167 4.504072 -35.346406 -50.308829 -4.599000 -12.917500 39.060400 14.104411 13.973675 -39.471303 -11.399661 3.036301 -8.925073 12.493509 10.139732 -42.909760 1.762500 2.337500 -10.117500 -90.429745 28.009884 9.747066 12.930671 -15.306406 -2.666915 0.326549 1.739776 20.607286 -7.125000 0.000000 0.000000 79.656974 -29.258330 12.375786 -17.381243 24.062625 -4.586518 0.171614 1.663047 25.747131 7.125000 0.000000 0.000000 
-0.028815 18.362832 10.132095 -4.689408 40.528814 14.747627 -13.432646 -39.852486 1.774988 -2.753738 -1.412525 -2.462214 -5.144734 20.220031 6.808562 1.089100 -6.632400 -18.630900 27.922153 27.431361 11.880381 5.203259 0.958636 0.734665 4.398111 -35.347269 -50.578643 -4.637900 -12.964000 39.234000 13.755419 13.890157 -39.613450 -11.383205 3.079259 -8.751259 12.739735 10.004575 -42.568343 1.867000 2.270100 -9.957400 -90.195344 28.078107 9.664698 12.940044 -15.341755 -2.667862 0.337435 1.709196 20.702307 -7.125000 0.000000 0.000000 79.824953 -29.286634 12.286702 -17.388313 24.054027 -4.586400 0.171770 1.663857 25.685409 7.125000 0.000000 0.000000 
-0.032075 18.363148 10.146818 -4.451337 40.624184 14.876123 -13.690771 -39.804024 1.824510 -2.754797 -1.401686 -2.435803 -5.085461 20.076233 6.908406 1.099700 -6.663400 -18.722100 27.845022 27.492972 12.014126 5.213668 0.972070 0.709051 4.276986 -35.316676 -50.854590 -4.661400 -12.992100 39.338800 13.639358 13.757619 -39.717286 -11.259766 3.055016 -8.538455 12.798365 10.047533 -42.423665 1.860200 2.285600 -9.896000 -90.131917 28.164443 9.319201 12.992794 -15.383247 -2.642717 0.073718 1.618496 20.762267 -7.125000 0.000000 0.000000 79.763167 -29.363676 12.822948 -17.405892 24.080164 -4.596229 0.174314 1.666603 25.460867 7.125000 0.000000 0.000000 
